# xmcd CD database file
#
# Track frame offsets:
#	150
#	17447
#	36635
#	57192
#	78965
#	93640
#	107695
#	123857
#	140017
#	157365
#	172962
#	188710
#	201582
#
# Disc length: 2971 seconds
#
# Revision: 3
# Processed by: cddbd v1.5.2PL0 Copyright (c) Steve Scherf et al.
# Submitted via: CDex 1.70beta2
#
DISCID=b50b990d
DTITLE=DEBBIE DAVIES - LOVE THE GAME
DYEAR=2001
DGENRE=Blues
TTITLE0=Love The Game
TTITLE1=Can't Live Like This No More
TTITLE2=Fired Up
TTITLE3=Down In The Trenches
TTITLE4=Worst Kinda Man
TTITLE5=Can't Find The Blues
TTITLE6=Was Ya Blue
TTITLE7=I'm Just Your Fool
TTITLE8=Leading Me Home
TTITLE9=Funky Little Teapot
TTITLE10=She's Takin' Notes
TTITLE11=Keep Your Sins To Yourself
TTITLE12=Grow Up, Grow Old
EXTD=YEAR: 2001
EXTT0=
EXTT1=
EXTT2=
EXTT3=
EXTT4=
EXTT5=
EXTT6=
EXTT7=
EXTT8=
EXTT9=
EXTT10=
EXTT11=
EXTT12=
PLAYORDER=
